# xmcd
#
# Track frame offsets:
#	150
#	11717
#	27755
#	44757
#	59155
#	71742
#	83602
#	96070
#	105540
#	121402
#	137080
#	155487
#	169240
#	183082
#	194067
#	208532
#	221802
#	230830
#	243835
#
# Disc length: 3434 seconds
#
# Revision: 0
# Processed by: cddbd v1.5.2PL0 Copyright (c) Steve Scherf et al.
# Submitted via: dBpowerAMP V4.0
#
DISCID=180d6813
DTITLE=Various Artist - Country Roads Disc 2
DYEAR=1900
DGENRE=Country
TTITLE0=01 Patsy Cline - Walking After Midnight
TTITLE1=02 Waylon Jennings - Lonesome On'ry and Mean
TTITLE2=03 Willie Nelson - Me and Paul
TTITLE3=04Dolly Parton - Harper Valley P T A
TTITLE4=05 Kenny Rodgers  - Reuben James
TTITLE5=06 Billie Jo Spears - Misty Blue
TTITLE6=07 Charlie Rich - Most Beautiful Girl In The World
TTITLE7=08 Jim Reeves - I Know One
TTITLE8=09 Charley Pride - Me and Bobby McGee
TTITLE9=10 Dolly Parton - Heartbreaker
TTITLE10=11 Alabama - My Home Is In Alabama
TTITLE11=12 Glen Campbell - Witchta Lineman
TTITLE12=13 John Hartford - Gentle On My Mind
TTITLE13=14 Skeeter Davis - Take Me Home Countery Roads
TTITLE14=15 Leon Everette - Shadow Of My Mind
TTITLE15=16 Crysyal Gayle - Talking In Your Sleep
TTITLE16=17 Charley Pride - Honky tonk Blues
TTITLE17=18 Jim Reeves - Distant Drums
TTITLE18=19 Dolly Parton - In Mt Tennessee Mountain Home
EXTD=rca cd 204
EXTT0=
EXTT1=
EXTT2=
EXTT3=
EXTT4=
EXTT5=
EXTT6=
EXTT7=
EXTT8=
EXTT9=
EXTT10=
EXTT11=
EXTT12=
EXTT13=
EXTT14=
EXTT15=
EXTT16=
EXTT17=
EXTT18=
PLAYORDER=
